<svg xmlns="http://www.w3.org/2000/svg" width="52" height="52"><path d="M0 0 C3.125 -0.1875 3.125 -0.1875 6 0 C6.33 0.99 6.66 1.98 7 3 C7.763125 2.773125 8.52625 2.54625 9.3125 2.3125 C12 2 12 2 13.8125 3.125 C15.33916108 5.53551749 15 7.18840978 15 10 C15.515625 10.495 16.03125 10.99 16.5625 11.5 C17.036875 11.995 17.51125 12.49 18 13 C17.8125 15.625 17.8125 15.625 17 18 C16.34 18.33 15.68 18.66 15 19 C15.04125 19.78375 15.0825 20.5675 15.125 21.375 C15 24 15 24 13 26 C12.175 25.979375 11.35 25.95875 10.5 25.9375 C9.675 25.958125 8.85 25.97875 8 26 C7.34 26.99 6.68 27.98 6 29 C3.0625 29.375 3.0625 29.375 0 29 C-1.5625 27.5625 -1.5625 27.5625 -3 26 C-5.60611077 25.27802838 -5.60611077 25.27802838 -8 25 C-8.93423645 21.98968256 -9.04449911 21.13349732 -8 18 C-8.99 18 -9.98 18 -11 18 C-11 15.69 -11 13.38 -11 11 C-10.01 11 -9.02 11 -8 11 C-8.226875 10.071875 -8.45375 9.14375 -8.6875 8.1875 C-9 5 -9 5 -7.8125 3.0625 C-6 2 -6 2 -3.8125 2.3125 C-3.214375 2.539375 -2.61625 2.76625 -2 3 C-1.34 2.01 -0.68 1.02 0 0 Z M2 3 C1.67 3.66 1.34 4.32 1 5 C-1.32156597 5.40729228 -3.6568787 5.74438677 -6 6 C-5.67 6.99 -5.34 7.98 -5 9 C-5.3125 11.625 -5.3125 11.625 -6 14 C-6.99 14.495 -6.99 14.495 -8 15 C-7.34 15 -6.68 15 -6 15 C-4.875 20.75 -4.875 20.75 -6 23 C-4.88625 23.12375 -3.7725 23.2475 -2.625 23.375 C1 24 1 24 3 26 C3.7425 25.525625 4.485 25.05125 5.25 24.5625 C7.61050015 23.22130673 9.36648477 22.487688 12 22 C11.67 21.34 11.34 20.68 11 20 C12.04109483 17.43730503 13.02610343 15.97389657 15 14 C14.34 13.67 13.68 13.34 13 13 C11.8125 10.5625 11.8125 10.5625 11 8 C11.33 7.34 11.66 6.68 12 6 C10.63875 5.814375 10.63875 5.814375 9.25 5.625 C6.41029677 5.07890323 4.47409409 4.42736197 2 3 Z " fill="#FFFFFF" transform="translate(23,12)"></path><path d="M0 0 C1.26714844 -0.01417969 2.53429688 -0.02835937 3.83984375 -0.04296875 C7.0625 0.1875 7.0625 0.1875 9.0625 2.1875 C9.63289258 5.24360339 9.5962277 8.12781349 9.0625 11.1875 C6.88090855 13.94319447 5.19072506 15.62338747 2.0625 17.1875 C-4.40808824 17.54044118 -4.40808824 17.54044118 -7.9375 15.1875 C-8.265625 11.96484375 -8.265625 11.96484375 -8.1875 8.125 C-8.17203125 6.85527344 -8.1565625 5.58554688 -8.140625 4.27734375 C-7.77358777 -1.30585713 -5.0108617 0.02543585 0 0 Z M-4.9375 3.1875 C-4.9375 6.8175 -4.9375 10.4475 -4.9375 14.1875 C0.04817094 14.59567755 0.04817094 14.59567755 4.5 12.625 C6.5873128 9.36879203 6.3540423 6.97754984 6.0625 3.1875 C2.4325 3.1875 -1.1975 3.1875 -4.9375 3.1875 Z " fill="#FFFFFF" transform="translate(7.9375,-0.1875)"></path><path d="M0 0 C3.85256417 0.06203807 4.52529262 0.3057065 7.6875 2.875 C8.3475 3.720625 9.0075 4.56625 9.6875 5.4375 C10.0175 5.7675 10.3475 6.0975 10.6875 6.4375 C10.7854057 7.93488124 10.81724864 9.43692892 10.8125 10.9375 C10.81636719 12.15953125 10.81636719 12.15953125 10.8203125 13.40625 C10.6875 15.4375 10.6875 15.4375 9.6875 16.4375 C6.99095146 16.51069621 4.32058542 16.52992537 1.625 16.5 C0.86638672 16.49548828 0.10777344 16.49097656 -0.67382812 16.48632812 C-2.55341871 16.4745068 -4.43296899 16.45657078 -6.3125 16.4375 C-6.36634521 14.14608714 -6.40522087 11.85431812 -6.4375 9.5625 C-6.46070313 8.28632812 -6.48390625 7.01015625 -6.5078125 5.6953125 C-6.21546882 0.81901991 -4.51957456 0.1291307 0 0 Z M-3.3125 3.4375 C-3.3125 7.0675 -3.3125 10.6975 -3.3125 14.4375 C0.3175 14.4375 3.9475 14.4375 7.6875 14.4375 C8.09567755 9.45182906 8.09567755 9.45182906 6.125 5 C2.86879203 2.9126872 0.47754984 3.1459577 -3.3125 3.4375 Z " fill="#FFFFFF" transform="translate(6.3125,35.5625)"></path><path d="M0 0 C1.27875 0.00257812 2.5575 0.00515625 3.875 0.0078125 C5.15375 0.00523438 6.4325 0.00265625 7.75 0 C10.875 0.1328125 10.875 0.1328125 11.875 1.1328125 C11.94813567 3.66330652 11.96747527 6.16586087 11.9375 8.6953125 C11.93298828 9.40623047 11.92847656 10.11714844 11.92382812 10.84960938 C11.91200864 12.61071263 11.89407263 14.37177286 11.875 16.1328125 C8.62559877 17.75751312 5.386119 17.6724845 1.875 17.1328125 C-2.57366879 14.82903759 -2.57366879 14.82903759 -4.125 12.1328125 C-4.67077187 8.40778702 -4.61941141 4.8628024 -4.125 1.1328125 C-3.125 0.1328125 -3.125 0.1328125 0 0 Z M-2.125 3.1328125 C-2.5217082 8.09875824 -2.5217082 8.09875824 -0.625 12.5703125 C3.01146461 14.84310288 5.63282535 14.41562414 9.875 14.1328125 C9.875 10.5028125 9.875 6.8728125 9.875 3.1328125 C5.915 3.1328125 1.955 3.1328125 -2.125 3.1328125 Z " fill="#FFFFFF" transform="translate(40.125,-0.1328125)"></path><path d="M0 0 C0.66 0.33 1.32 0.66 2 1 C2 5.95 2 10.9 2 16 C-3.28 16 -8.56 16 -14 16 C-14.60289958 5.99186704 -14.60289958 5.99186704 -12.0625 1.8125 C-7.98315887 -0.60180393 -4.63803377 -0.63784354 0 0 Z M-10.5 4.5625 C-12.50478781 7.82028019 -12.28862859 10.24782833 -12 14 C-8.04 14 -4.08 14 0 14 C0 10.37 0 6.74 0 3 C-5.55285502 2.50344899 -5.55285502 2.50344899 -10.5 4.5625 Z " fill="#FFFFFF" transform="translate(50,36)"></path><path d="M0 0 C2.45636081 2.07255443 2.88864581 3.36369034 3.4375 6.5 C2.84278924 9.89834723 1.79734842 11.01241034 -1 13 C-4.6717087 13.61195145 -6.28813568 13.48706506 -9.375 11.375 C-11.46379841 8.32214079 -11.54068562 6.63031776 -11 3 C-8.79421039 -1.13585552 -4.13903549 -0.77606915 0 0 Z M-5 2 C-5.99 2.66 -6.98 3.32 -8 4 C-7.62095792 7.29075996 -7.62095792 7.29075996 -6 10 C-4.33382885 10.04063832 -2.66611905 10.042721 -1 10 C-0.67 8.02 -0.34 6.04 0 4 C-2.32854463 2.80161791 -2.32854463 2.80161791 -5 2 Z " fill="#FFFFFF" transform="translate(30,20)"></path><path d="M0 0 C0.99 0 1.98 0 3 0 C3 3.3 3 6.6 3 10 C2.01 10 1.02 10 0 10 C0 6.7 0 3.4 0 0 Z " fill="#FFFFFF" transform="translate(21,0)"></path><path d="M0 0 C3.3 0 6.6 0 10 0 C10 0.99 10 1.98 10 3 C6.7 3 3.4 3 0 3 C0 2.01 0 1.02 0 0 Z " fill="#FFFFFF" transform="translate(0,21)"></path><path d="M0 0 C0.66 0 1.32 0 2 0 C2 3.3 2 6.6 2 10 C1.01 10 0.02 10 -1 10 C-1.02689216 8.52093108 -1.04634621 7.04172517 -1.0625 5.5625 C-1.07410156 4.73878906 -1.08570312 3.91507813 -1.09765625 3.06640625 C-1 1 -1 1 0 0 Z " fill="#FFFFFF" transform="translate(22,42)"></path><path d="M0 0 C3.3 0 6.6 0 10 0 C10 0.99 10 1.98 10 3 C7.03 3 4.06 3 1 3 C0.67 2.01 0.34 1.02 0 0 Z " fill="#FFFFFF" transform="translate(42,29)"></path><path d="M0 0 C2.97 0 5.94 0 9 0 C9 0.99 9 1.98 9 3 C5.7 3 2.4 3 -1 3 C-0.67 2.01 -0.34 1.02 0 0 Z " fill="#FFFFFF" transform="translate(43,21)"></path><path d="M0 0 C3.3 0 6.6 0 10 0 C9.67 0.99 9.34 1.98 9 3 C6.36 3 3.72 3 1 3 C0.67 2.01 0.34 1.02 0 0 Z " fill="#FFFFFF" transform="translate(0,29)"></path><path d="M0 0 C0.66 0 1.32 0 2 0 C2 3.63 2 7.26 2 11 C1.34 11 0.68 11 0 11 C0 7.37 0 3.74 0 0 Z " fill="#FFFFFF" transform="translate(29,0)"></path><path d="M0 0 C0.66 0 1.32 0 2 0 C2 3.3 2 6.6 2 10 C1.34 10 0.68 10 0 10 C0 6.7 0 3.4 0 0 Z " fill="#FFFFFF" transform="translate(29,42)"></path></svg>