<svg xmlns="http://www.w3.org/2000/svg" width="56" height="56"><path d="M0 0 C2.64 0 5.28 0 8 0 C9.82915214 3.65830428 9.22762535 7.97256365 9.25 12 C9.270625 12.928125 9.29125 13.85625 9.3125 14.8125 C9.32023437 16.1428125 9.32023437 16.1428125 9.328125 17.5 C9.34214355 18.72203125 9.34214355 18.72203125 9.35644531 19.96875 C9.23881836 20.6390625 9.12119141 21.309375 9 22 C4.43939567 25.04040289 -0.07348014 24.32890373 -5.4375 24.3125 C-6.48744141 24.32861328 -7.53738281 24.34472656 -8.61914062 24.36132812 C-9.63041016 24.36197266 -10.64167969 24.36261719 -11.68359375 24.36328125 C-12.60712646 24.36626221 -13.53065918 24.36924316 -14.48217773 24.37231445 C-17.42102853 23.93774183 -18.80131782 22.94762493 -21 21 C-21.66 21.33 -22.32 21.66 -23 22 C-24.98 22 -26.96 22 -29 22 C-29 28.93 -29 35.86 -29 43 C-10.685 43.495 -10.685 43.495 8 44 C8 44.99 8 45.98 8 47 C-9.82 47 -27.64 47 -46 47 C-46 46.01 -46 45.02 -46 44 C-44.515 43.505 -44.515 43.505 -43 43 C-43 39.7 -43 36.4 -43 33 C-43.99 33 -44.98 33 -46 33 C-47.83784834 29.32430331 -47.38056271 25.02127934 -47 21 C-45.5 18.0625 -45.5 18.0625 -44 16 C-44 15.01 -44 14.02 -44 13 C-43.44589309 7.68057366 -43.44589309 7.68057366 -41.8125 5.1875 C-39.13779432 3.43510662 -37.19446895 3.06388938 -34 3 C-30.76142643 4.87117584 -29.31551998 6.05344005 -28.125 9.625 C-28 12 -28 12 -29 14 C-27.329375 13.9690625 -27.329375 13.9690625 -25.625 13.9375 C-22 14 -22 14 -20 15 C-19.34 13.68 -18.68 12.36 -18 11 C-16.35 11 -14.7 11 -13 11 C-12.67 9.68 -12.34 8.36 -12 7 C-10.35 7 -8.7 7 -7 7 C-7 6.01 -7 5.02 -7 4 C-5.02 4 -3.04 4 -1 4 C-0.67 2.68 -0.34 1.36 0 0 Z M2 3 C2 8.61 2 14.22 2 20 C2.99 20 3.98 20 5 20 C6.03815092 11.47534997 6.03815092 11.47534997 5 3 C4.01 3 3.02 3 2 3 Z M-39 7 C-39.66 8.65 -40.32 10.3 -41 12 C-39.68 13.32 -38.36 14.64 -37 16 C-35.35 15.34 -33.7 14.68 -32 14 C-32.33 13.34 -32.66 12.68 -33 12 C-33.99 11.67 -34.98 11.34 -36 11 C-37.6875 8.9375 -37.6875 8.9375 -39 7 Z M-4 7 C-4 11.29 -4 15.58 -4 20 C-3.01 20 -2.02 20 -1 20 C-1 15.71 -1 11.42 -1 7 C-1.99 7 -2.98 7 -4 7 Z M-10 11 C-10 13.97 -10 16.94 -10 20 C-9.01 20 -8.02 20 -7 20 C-7 17.03 -7 14.06 -7 11 C-7.99 11 -8.98 11 -10 11 Z M-16 15 C-16 16.65 -16 18.3 -16 20 C-15.01 20 -14.02 20 -13 20 C-13 18.35 -13 16.7 -13 15 C-13.99 15 -14.98 15 -16 15 Z M-34 18 C-34.40729228 20.32156597 -34.74438677 22.6568787 -35 25 C-35.66 25 -36.32 25 -37 25 C-37.33 22.69 -37.66 20.38 -38 18 C-39.94074861 18.27617533 -39.94074861 18.27617533 -42 19 C-44.05925681 22.08888522 -44.2390374 22.70935927 -44.125 26.1875 C-44.08375 27.445625 -44.0425 28.70375 -44 30 C-43.67 30 -43.34 30 -43 30 C-42.87625 29.195625 -42.7525 28.39125 -42.625 27.5625 C-42.41875 26.716875 -42.2125 25.87125 -42 25 C-41.34 24.67 -40.68 24.34 -40 24 C-40 25.32 -40 26.64 -40 28 C-37.36 28 -34.72 28 -32 28 C-32.020625 26.88625 -32.04125 25.7725 -32.0625 24.625 C-32 21 -32 21 -31 19 C-28.35139573 18.40644386 -25.70802678 18.25790731 -23 18 C-23 17.67 -23 17.34 -23 17 C-24.45823212 16.9729957 -25.91660675 16.95360213 -27.375 16.9375 C-28.59316406 16.92009766 -28.59316406 16.92009766 -29.8359375 16.90234375 C-32.04937142 16.85533666 -32.04937142 16.85533666 -34 18 Z M-40 31 C-40.33 35.29 -40.66 39.58 -41 44 C-39.68 43.67 -38.36 43.34 -37 43 C-37 41.35 -37 39.7 -37 38 C-36.34 38 -35.68 38 -35 38 C-35.33 39.98 -35.66 41.96 -36 44 C-34.35 44 -32.7 44 -31 44 C-31.33 43.34 -31.66 42.68 -32 42 C-32.2275015 40.12943209 -32.40962811 38.25314042 -32.5625 36.375 C-32.64628906 35.37210938 -32.73007812 34.36921875 -32.81640625 33.3359375 C-32.87699219 32.56507812 -32.93757813 31.79421875 -33 31 C-35.31 31 -37.62 31 -40 31 Z " fill="#765CF3" transform="translate(47,9)"></path><path d="M0 0 C1.4583982 0.00399197 2.91679743 0.01875035 4.375 0.04296875 C5.11234375 0.04361328 5.8496875 0.04425781 6.609375 0.04492188 C12.09398191 0.08995971 12.09398191 0.08995971 14.375 1.23046875 C14.375 5.52046875 14.375 9.81046875 14.375 14.23046875 C11.60282133 13.94875546 8.83269759 13.65555483 6.0625 13.35546875 C4.88397461 13.23751953 4.88397461 13.23751953 3.68164062 13.1171875 C2.92431641 13.03339844 2.16699219 12.94960937 1.38671875 12.86328125 C0.69022217 12.78996582 -0.00627441 12.71665039 -0.72387695 12.64111328 C-2.625 12.23046875 -2.625 12.23046875 -5.625 10.23046875 C-5.98828125 8.35546875 -5.98828125 8.35546875 -5.9375 6.23046875 C-5.93169922 5.17859375 -5.93169922 5.17859375 -5.92578125 4.10546875 C-5.31279385 0.28424859 -3.61462752 0.22980929 0 0 Z M-2.625 4.23046875 C-2.625 5.55046875 -2.625 6.87046875 -2.625 8.23046875 C-1.965 7.90046875 -1.305 7.57046875 -0.625 7.23046875 C-0.625 6.24046875 -0.625 5.25046875 -0.625 4.23046875 C-1.285 4.23046875 -1.945 4.23046875 -2.625 4.23046875 Z M10.375 7.23046875 C10.045 7.89046875 9.715 8.55046875 9.375 9.23046875 C10.035 9.23046875 10.695 9.23046875 11.375 9.23046875 C11.045 8.57046875 10.715 7.91046875 10.375 7.23046875 Z " fill="#765CF3" transform="translate(20.625,-0.23046875)"></path><path d="M0 0 C7.92 0 15.84 0 24 0 C24.33 0.99 24.66 1.98 25 3 C16.75 3 8.5 3 0 3 C0 2.01 0 1.02 0 0 Z " fill="#765CF3" transform="translate(29,35)"></path><path d="M0 0 C6.27 0 12.54 0 19 0 C19 0.99 19 1.98 19 3 C12.73 3 6.46 3 0 3 C0 2.01 0 1.02 0 0 Z " fill="#765CF3" transform="translate(32,41)"></path></svg>